<?xml version="1.0" encoding="utf-8"?>
<!-- Generator: Adobe Illustrator 24.0.2, SVG Export Plug-In . SVG Version: 6.00 Build 0)  -->
<svg version="1.1" id="圖層_1" xmlns="http://www.w3.org/2000/svg" xmlns:xlink="http://www.w3.org/1999/xlink" x="0px" y="0px"
	 viewBox="0 0 150 150" style="enable-background:new 0 0 150 150;" xml:space="preserve">
<style type="text/css">
	.st0{fill:#75533F;}
</style>
<g>
	<g>
		<path class="st0" d="M58.15,35.66c0.6,0.01,0.17,0.01,0.3,0.02l0,0.02l0,0.04l0.01,0.08l0.01,0.16l0.03,0.31l0.05,0.63l0.1,1.26
			l0.16,2.52c0.11,1.68,0.22,3.35,0.29,5.03c0.17,3.35,0.28,6.71,0.36,10.06c0.16,6.71,0.26,13.42,0.07,20.12l-0.43,10.06
			c-0.16,3.35-0.3,6.71-0.33,10.06c-0.11,6.71,0.11,13.42,0.37,20.12l0.13,3.17l-1.74-2.79c-0.71-1.14-1.79-2.27-2.92-3.16
			c-1.15-0.9-2.4-1.66-3.73-2.25c-1.35-0.55-2.74-1-4.19-1.22c-0.71-0.16-1.46-0.17-2.18-0.28c-0.73-0.05-1.47-0.04-2.21-0.07l0.1,0
			c-1.74,0.14-3.32,0.19-4.81,0.51c-1.48,0.31-2.85,0.84-3.95,1.68c-1.1,0.84-1.94,1.97-2.56,3.28c-0.66,1.3-0.92,2.83-1.2,4.34
			l0.01-0.21c-0.01,1.49,0.23,2.83,0.98,3.85c0.7,1.06,1.93,1.83,3.31,2.4c1.39,0.57,2.93,0.94,4.52,1.16c0.79,0.14,1.6,0.2,2.4,0.3
			c0.78,0.07,1.52,0.07,2.3,0.02c3.09-0.27,6.21-1.39,8.85-3.21c2.66-1.8,4.8-4.41,5.89-7.56l0.29,0.07
			c-0.6,3.35-2.56,6.49-5.25,8.7c-2.7,2.2-5.94,3.81-9.51,4.35c-0.88,0.12-1.83,0.18-2.72,0.15c-0.86-0.05-1.73-0.04-2.6-0.16
			c-1.73-0.16-3.49-0.49-5.24-1.1c-1.72-0.61-3.52-1.62-4.76-3.33c-1.29-1.68-1.66-3.82-1.68-5.65l0-0.12l0.02-0.09
			c0.31-1.76,0.63-3.56,1.48-5.27c0.79-1.7,2.01-3.32,3.62-4.44c1.6-1.14,3.45-1.77,5.23-2.08c1.79-0.33,3.56-0.32,5.15-0.4l0.09,0
			l0.01,0c0.82,0.05,1.64,0.08,2.46,0.15c0.82,0.13,1.64,0.19,2.45,0.41c1.62,0.34,3.19,0.93,4.69,1.65
			c1.49,0.75,2.88,1.7,4.09,2.84c1.22,1.15,2.26,2.39,3.07,3.97l-1.62,0.38c0.27-6.71,0.48-13.42,0.37-20.12
			c-0.03-3.35-0.17-6.71-0.33-10.06l-0.43-10.06c-0.19-6.71-0.09-13.42,0.07-20.12c0.08-3.35,0.2-6.71,0.36-10.06
			c0.07-1.68,0.18-3.35,0.29-5.03l0.16-2.52l0.1-1.26l0.05-0.63l0.03-0.31l0.01-0.16l0.01-0.08l0-0.04l0-0.02
			c0.13-0.01-0.3-0.01,0.3-0.02H58.15z"/>
	</g>
	<g>
		<path class="st0" d="M53.5,89.68c-9.15-1.31-17.78-6.38-23.56-13.82c-2.88-3.72-5.11-7.98-6.42-12.53
			c-1.31-4.55-1.74-9.35-1.31-14.08c0.48-4.73,1.81-9.38,4-13.6c2.18-4.23,5.17-8.03,8.77-11.12c7.19-6.22,16.74-9.45,26.08-9.05
			c9.36,0.31,18.46,4.23,25.15,10.67c6.72,6.41,11.06,15.33,11.76,24.69c0.38,4.67-0.11,9.42-1.47,13.94
			c-1.34,4.53-3.62,8.78-6.56,12.49c-5.86,7.48-14.68,12.59-24.14,13.99l-1.69,0.25l-0.01-1.73c-0.04-6.77-0.12-13.54-0.11-20.31
			c-0.02-6.77,0.01-13.54,0.06-20.31l0.01-1.86l1.77,0.34c2.26,0.43,4.3,1.09,6.36,2.01c2.01,0.94,3.98,2.13,5.6,3.85
			c1.61,1.69,2.81,4,2.96,6.41c0.21,2.41-0.43,4.7-1.31,6.74l-1.91-1.5c1.81-1.35,3.44-3.1,4.62-5.03c1.17-1.94,1.86-4.13,1.6-6.29
			c-0.23-2.17-1.47-4.18-3.08-5.84c-1.64-1.65-3.62-3.03-5.72-4.2l0.07,0.03c-2.82-1.19-5.94-1.98-8.83-3.38
			c-1.45-0.68-2.83-1.48-4.16-2.35c-1.33-0.87-2.59-1.84-3.83-2.82l0.18-0.24c2.59,1.78,5.29,3.4,8.18,4.57
			c1.44,0.59,2.92,1.05,4.43,1.48c1.51,0.43,3.05,0.84,4.57,1.41l0.02,0.01l0.05,0.02c2.23,1.12,4.38,2.47,6.27,4.22
			c1.85,1.75,3.48,4.05,3.9,6.79c0.45,2.73-0.33,5.5-1.63,7.76c-1.32,2.28-3.04,4.23-5.11,5.87l-3.69,2.92l1.78-4.42
			c0.73-1.81,1.16-3.71,0.95-5.49c-0.17-1.79-1.05-3.39-2.34-4.7c-1.29-1.31-2.99-2.3-4.78-3.09c-1.78-0.78-3.76-1.38-5.62-1.71
			l1.78-1.52c0.05,6.77,0.08,13.54,0.06,20.31c0.01,6.77-0.06,13.54-0.11,20.31l-1.71-1.48c4.37-0.59,8.62-2.02,12.47-4.18
			c3.85-2.17,7.31-5.03,10.16-8.43c5.69-6.8,8.83-15.77,8.39-24.76c-0.2-4.48-1.23-8.95-3.06-13.08c-1.85-4.12-4.49-7.9-7.76-11.04
			c-3.25-3.16-7.13-5.66-11.32-7.38c-4.2-1.71-8.72-2.56-13.23-2.52c-4.5,0.02-8.98,0.86-13.13,2.49
			c-4.16,1.62-7.97,4.04-11.25,7.02c-6.56,5.95-10.92,14.27-11.87,23.1c-0.42,4.41-0.18,8.91,0.98,13.21
			c1.15,4.29,3.07,8.4,5.7,12.02c5.21,7.28,13.16,12.64,22.1,14.65L53.5,89.68z"/>
	</g>
</g>
<g>
	<path class="st0" d="M69.06,111.78c-0.71,1.46-1.5,2.65-2.37,3.57c-0.87,0.91-1.66,1.37-2.35,1.37c-0.56,0-1.01-0.2-1.36-0.59
		c-0.35-0.39-0.52-0.91-0.52-1.54c0-0.81,0.27-2.3,0.82-4.46c0.15-0.58,0.22-0.96,0.22-1.11c0-0.15-0.05-0.32-0.15-0.5l1.06-0.01
		c0.46,0,0.69,0.18,0.69,0.53c0,0.22-0.15,0.85-0.45,1.9c-0.09,0.31-0.15,0.53-0.18,0.65l-0.12,0.47c-0.23,0.94-0.34,1.65-0.34,2.15
		c0,0.76,0.26,1.14,0.79,1.14c0.86,0,1.95-1.06,3.27-3.18c1.08-1.73,1.62-2.96,1.62-3.69c0-0.1-0.03-0.21-0.09-0.31
		c0.42-0.12,0.78-0.18,1.07-0.18c0.45,0,0.68,0.14,0.68,0.42c0,0.07-0.02,0.16-0.06,0.29c-0.02,0.08-0.07,0.26-0.15,0.56
		c-0.01,0.06-0.06,0.26-0.15,0.62c-0.07,0.25-0.12,0.45-0.15,0.6l-0.08,0.37c-0.17,0.85-0.25,1.64-0.25,2.38
		c0,1.13,0.27,1.69,0.82,1.69c1.2,0,2.73-1.69,4.58-5.07l0.65,0.38c-2.11,4.05-4.03,6.08-5.78,6.08c-1.18,0-1.76-1.02-1.76-3.06
		C69,112.84,69.02,112.36,69.06,111.78z"/>
	<path class="st0" d="M82.95,110.24c-1.06,2.02-2.13,3.6-3.21,4.75c-1.07,1.15-2.02,1.72-2.85,1.72c-0.6,0-1.09-0.23-1.46-0.7
		c-0.37-0.46-0.55-1.07-0.55-1.82c0-0.42,0.08-1.02,0.23-1.79l1.53-7.72c-0.2,0.03-0.38,0.05-0.52,0.05c-1.18,0-1.77-0.49-1.77-1.48
		v-0.18c0.62,0.35,1.31,0.52,2.09,0.52c0.78,0,1.45-0.19,2.03-0.58l-1.79,9.27c-0.16,0.83-0.24,1.41-0.24,1.72
		c0,0.87,0.32,1.3,0.96,1.3c0.62,0,1.24-0.35,1.86-1.04s1.65-2.18,3.07-4.45L82.95,110.24z"/>
	<path class="st0" d="M91.96,110.23c-1.24,2.08-2.56,3.73-3.95,4.93c-1.39,1.2-2.68,1.8-3.88,1.8c-0.99,0-1.8-0.34-2.41-1.02
		c-0.62-0.68-0.92-1.56-0.92-2.64c0-1.43,0.53-2.67,1.59-3.73c1.06-1.06,2.31-1.59,3.75-1.59c0.58,0,1.06,0.11,1.43,0.33
		c0.37,0.22,0.56,0.51,0.56,0.85c0,0.57-0.48,0.99-1.44,1.27c0.05-0.12,0.08-0.24,0.08-0.35c0-0.83-0.44-1.25-1.33-1.25
		c-0.77,0-1.47,0.43-2.12,1.28c-0.64,0.86-0.97,1.79-0.97,2.81c0,0.83,0.21,1.5,0.64,2.02c0.43,0.52,0.99,0.78,1.68,0.78
		c1.89,0,4.1-1.96,6.64-5.88L91.96,110.23z"/>
	<path class="st0" d="M91.38,113.32c0,1.5,0.64,2.25,1.91,2.25c1.1,0,2.32-0.53,3.65-1.58c1.33-1.05,2.53-2.43,3.6-4.15l0.66,0.36
		c-1.01,1.88-2.32,3.43-3.93,4.67s-3.14,1.85-4.58,1.85c-0.92,0-1.66-0.3-2.19-0.89c-0.54-0.6-0.8-1.41-0.8-2.44
		c0-1.49,0.49-2.76,1.46-3.82c0.97-1.06,2.15-1.59,3.52-1.59c0.66,0,1.19,0.17,1.59,0.5c0.4,0.33,0.6,0.78,0.6,1.34
		c0,0.92-0.55,1.73-1.66,2.44C94.09,112.96,92.82,113.32,91.38,113.32z M91.45,112.58c1.07-0.06,1.99-0.36,2.76-0.92
		c0.77-0.56,1.15-1.2,1.15-1.94c0-0.66-0.29-0.98-0.88-0.98c-0.7,0-1.34,0.37-1.93,1.12S91.59,111.51,91.45,112.58z"/>
	<path class="st0" d="M104.9,113.47c0.14,0.25,0.21,0.47,0.21,0.66c0,0.5-0.43,1.06-1.28,1.67c-0.85,0.61-1.63,0.91-2.32,0.91
		c-0.62,0-1.12-0.27-1.51-0.82c-0.39-0.55-0.58-1.26-0.58-2.13c0-0.97,0.25-2.34,0.76-4.12l0.35-1.29h-1.3
		c-0.54,0-0.98,0.08-1.3,0.23c0.3-0.54,0.54-0.88,0.74-1.02c0.2-0.14,0.53-0.21,0.99-0.21h1.16l0.15-0.53
		c0.24-0.79,0.52-1.34,0.85-1.63c0.33-0.3,0.82-0.44,1.48-0.44c0.08,0,0.2,0,0.37,0.02c-0.4,0.51-0.82,1.38-1.25,2.6h4.07
		c0.71,0,1.26-0.09,1.63-0.28c-0.13,0.53-0.3,0.87-0.51,1.03c-0.21,0.16-0.61,0.24-1.19,0.24h-4.33c-0.05,0.17-0.09,0.29-0.12,0.38
		c-0.62,2.12-0.93,3.71-0.93,4.79c0,1.19,0.43,1.79,1.29,1.79c0.44,0,0.92-0.19,1.44-0.56C104.31,114.37,104.68,113.95,104.9,113.47
		z"/>
</g>
<g>
	<path class="st0" d="M77.94,126.25c1.85-3.9,3.48-5.84,4.9-5.84c0.62,0,0.93,0.45,0.93,1.35c0,0.38-0.13,1.25-0.4,2.6l-0.46,2.33
		c0.9-1.89,1.84-3.41,2.81-4.55c0.98-1.15,1.82-1.72,2.53-1.72c0.78,0,1.17,0.46,1.17,1.37c0,0.33-0.12,1.08-0.35,2.25l-0.24,1.2
		c-0.14,0.72-0.22,1.26-0.22,1.61c0,0.62,0.22,0.92,0.66,0.92c0.99,0,2.5-1.83,4.55-5.49l0.65,0.36c-2.23,4.34-4.18,6.51-5.84,6.51
		c-1.06,0-1.59-0.69-1.59-2.08c0-0.46,0.1-1.21,0.31-2.23l0.21-1.06c0.14-0.72,0.22-1.17,0.22-1.34c0-0.22-0.11-0.33-0.34-0.33
		c-0.55,0-1.55,1.1-2.98,3.3c-1.3,2.01-1.95,3.16-1.95,3.44c0,0.03,0.01,0.08,0.03,0.16c-0.07,0.02-0.2,0.05-0.38,0.1
		c-0.08,0.03-0.19,0.04-0.35,0.04c-0.48,0-0.72-0.23-0.72-0.68c0-0.14,0.08-0.56,0.23-1.25c0.06-0.25,0.11-0.52,0.17-0.81l0.32-1.63
		c0.24-1.18,0.35-1.88,0.35-2.12c0-0.34-0.13-0.52-0.38-0.52c-0.55,0-1.37,0.99-2.45,2.98c-1.07,1.97-1.61,3.14-1.61,3.52
		c0,0.11,0.04,0.21,0.12,0.32c-0.28,0.12-0.54,0.19-0.78,0.19c-0.53,0-0.8-0.29-0.8-0.86c0-0.07,0.08-0.82,0.23-2.24l0.18-1.64
		c0.06-0.58,0.09-1.11,0.09-1.59c0-0.62-0.13-1.07-0.38-1.36c0.6-0.22,1.02-0.32,1.26-0.32c0.45,0,0.68,0.27,0.68,0.8
		c0,0.19-0.06,0.9-0.19,2.12L77.94,126.25z"/>
	<path class="st0" d="M99.31,124.21c-0.71,1.46-1.5,2.65-2.37,3.57c-0.87,0.91-1.66,1.37-2.35,1.37c-0.56,0-1.01-0.2-1.36-0.59
		c-0.35-0.39-0.52-0.91-0.52-1.54c0-0.81,0.27-2.3,0.82-4.46c0.15-0.58,0.22-0.96,0.22-1.11c0-0.15-0.05-0.32-0.15-0.5l1.06-0.01
		c0.46,0,0.69,0.18,0.69,0.53c0,0.22-0.15,0.85-0.45,1.9c-0.09,0.31-0.15,0.53-0.18,0.65l-0.12,0.47c-0.23,0.94-0.34,1.65-0.34,2.15
		c0,0.76,0.26,1.14,0.79,1.14c0.86,0,1.95-1.06,3.27-3.18c1.08-1.73,1.62-2.96,1.62-3.69c0-0.1-0.03-0.21-0.09-0.31
		c0.42-0.12,0.78-0.18,1.07-0.18c0.45,0,0.68,0.14,0.68,0.42c0,0.07-0.02,0.16-0.06,0.29c-0.02,0.08-0.07,0.26-0.15,0.56
		c-0.01,0.06-0.06,0.26-0.15,0.62c-0.07,0.25-0.12,0.45-0.15,0.6l-0.08,0.37c-0.17,0.85-0.25,1.64-0.25,2.38
		c0,1.13,0.27,1.69,0.82,1.69c1.2,0,2.73-1.69,4.58-5.07l0.65,0.38c-2.11,4.05-4.03,6.08-5.78,6.08c-1.18,0-1.76-1.02-1.76-3.06
		C99.25,125.27,99.27,124.79,99.31,124.21z"/>
	<path class="st0" d="M109.24,126.25c0.17,0.39,0.26,0.76,0.26,1.12c0,0.79-0.33,1.47-0.99,2.05c-0.66,0.58-1.43,0.88-2.31,0.88
		c-0.52,0-0.96-0.13-1.33-0.4c-0.37-0.27-0.55-0.59-0.55-0.96c0-0.4,0.25-0.81,0.75-1.22s1.34-0.9,2.52-1.46l-0.62-0.99
		c-0.75-1.21-1.13-2.15-1.13-2.83c0-0.98,0.57-1.76,1.7-2.36c0.7,0.27,1.05,0.6,1.05,1.01c0,0.58-0.45,1.13-1.33,1.66l0.88,1.62
		l0.69,1.25c0.98-0.59,1.72-1.09,2.22-1.51c0.5-0.42,1.13-1.06,1.89-1.94l0.62,0.38C112.46,124.01,111.02,125.25,109.24,126.25z
		 M107.93,126.94c-1.51,0.81-2.27,1.44-2.27,1.89c0,0.42,0.31,0.63,0.92,0.63c0.45,0,0.82-0.15,1.1-0.46
		c0.28-0.3,0.42-0.7,0.42-1.18C108.11,127.53,108.05,127.24,107.93,126.94z"/>
	<path class="st0" d="M120.57,122.65c-1.16,2.04-2.33,3.63-3.52,4.78s-2.25,1.72-3.2,1.72c-0.58,0-1.04-0.19-1.39-0.56
		s-0.53-0.87-0.53-1.48c0-0.23,0.05-0.6,0.15-1.1l0.17-0.85c0.25-1.22,0.38-2.08,0.38-2.57c0-0.29-0.09-0.53-0.26-0.72
		c0.67-0.15,1.09-0.23,1.26-0.23c0.38,0,0.57,0.27,0.57,0.8c0,0.39-0.07,0.96-0.22,1.7l-0.3,1.5c-0.15,0.72-0.22,1.19-0.22,1.41
		c0,0.64,0.27,0.96,0.81,0.96c0.64,0,1.5-0.54,2.57-1.62c1.07-1.08,2.1-2.45,3.11-4.11L120.57,122.65z M113.71,118.77l0.11,0.01
		c0.34-0.01,0.84-0.19,1.48-0.52c0.64-0.33,1.15-0.67,1.51-1.01c-0.23,0.71-0.63,1.3-1.2,1.78c-0.87,0.73-1.46,1.09-1.77,1.09
		c-0.21,0-0.31-0.13-0.31-0.38C113.53,119.38,113.59,119.06,113.71,118.77z"/>
	<path class="st0" d="M129.57,122.66c-1.24,2.08-2.56,3.73-3.95,4.93c-1.39,1.2-2.68,1.8-3.88,1.8c-0.99,0-1.8-0.34-2.41-1.02
		c-0.62-0.68-0.92-1.56-0.92-2.64c0-1.43,0.53-2.67,1.59-3.73c1.06-1.06,2.31-1.59,3.75-1.59c0.58,0,1.06,0.11,1.43,0.33
		c0.37,0.22,0.56,0.51,0.56,0.85c0,0.57-0.48,0.99-1.44,1.27c0.05-0.12,0.08-0.24,0.08-0.35c0-0.83-0.44-1.25-1.33-1.25
		c-0.77,0-1.47,0.43-2.12,1.28c-0.64,0.86-0.97,1.79-0.97,2.81c0,0.83,0.21,1.5,0.64,2.02c0.43,0.52,0.99,0.78,1.68,0.78
		c1.89,0,4.1-1.96,6.64-5.88L129.57,122.66z"/>
</g>
<g>
</g>
<g>
</g>
<g>
</g>
<g>
</g>
<g>
</g>
<g>
</g>
<g>
</g>
<g>
</g>
<g>
</g>
<g>
</g>
<g>
</g>
<g>
</g>
<g>
</g>
<g>
</g>
<g>
</g>
</svg>
