<?xml version="1.0" encoding="utf-8"?>
<!-- Generator: Adobe Illustrator 24.1.3, SVG Export Plug-In . SVG Version: 6.00 Build 0)  -->
<svg version="1.1" id="圖層_1" xmlns="http://www.w3.org/2000/svg" xmlns:xlink="http://www.w3.org/1999/xlink" x="0px" y="0px"
	 viewBox="0 0 300 150" style="enable-background:new 0 0 300 150;" xml:space="preserve">
<g>
	<g>
		<path d="M72,33.1c0.6,0,0.2,0,0.3,0v0v0l0,0.1l0,0.2l0,0.3l0.1,0.6l0.1,1.3l0.2,2.5c0.1,1.7,0.2,3.3,0.3,5
			c0.2,3.3,0.3,6.7,0.4,10.1c0.2,6.7,0.3,13.4,0.1,20.1L73,83.4c-0.2,3.3-0.3,6.7-0.3,10.1c-0.1,6.7,0.1,13.4,0.4,20.1l0.1,3.2
			l-1.7-2.8c-0.7-1.1-1.8-2.3-2.9-3.2c-1.2-0.9-2.4-1.7-3.7-2.3c-1.3-0.6-2.7-1-4.2-1.2c-0.7-0.2-1.5-0.2-2.2-0.3
			c-0.7-0.1-1.5,0-2.2-0.1h0.1c-1.7,0.1-3.3,0.2-4.8,0.5c-1.5,0.3-2.8,0.8-4,1.7c-1.1,0.8-1.9,2-2.6,3.3c-0.7,1.3-0.9,2.8-1.2,4.3
			l0-0.2c0,1.5,0.2,2.8,1,3.8c0.7,1.1,1.9,1.8,3.3,2.4c1.4,0.6,2.9,0.9,4.5,1.2c0.8,0.1,1.6,0.2,2.4,0.3c0.8,0.1,1.5,0.1,2.3,0
			c3.1-0.3,6.2-1.4,8.8-3.2c2.7-1.8,4.8-4.4,5.9-7.6l0.3,0.1c-0.6,3.3-2.6,6.5-5.3,8.7c-2.7,2.2-5.9,3.8-9.5,4.3
			c-0.9,0.1-1.8,0.2-2.7,0.2c-0.9-0.1-1.7,0-2.6-0.2c-1.7-0.2-3.5-0.5-5.2-1.1c-1.7-0.6-3.5-1.6-4.8-3.3c-1.3-1.7-1.7-3.8-1.7-5.7
			v-0.1l0-0.1c0.3-1.8,0.6-3.6,1.5-5.3c0.8-1.7,2-3.3,3.6-4.4c1.6-1.1,3.5-1.8,5.2-2.1c1.8-0.3,3.6-0.3,5.2-0.4h0.1h0
			c0.8,0.1,1.6,0.1,2.5,0.2c0.8,0.1,1.6,0.2,2.5,0.4c1.6,0.3,3.2,0.9,4.7,1.7c1.5,0.8,2.9,1.7,4.1,2.8c1.2,1.2,2.3,2.4,3.1,4
			l-1.6,0.4c0.3-6.7,0.5-13.4,0.4-20.1c0-3.3-0.2-6.7-0.3-10.1l-0.4-10.1c-0.2-6.7-0.1-13.4,0.1-20.1c0.1-3.3,0.2-6.7,0.4-10.1
			c0.1-1.7,0.2-3.3,0.3-5l0.2-2.5l0.1-1.3l0.1-0.6l0-0.3l0-0.2L72,33.1L72,33.1L72,33.1c0.1,0-0.3,0,0.3,0L72,33.1L72,33.1z"/>
	</g>
	<g>
		<path d="M67.4,87.1c-9.2-1.3-17.8-6.4-23.6-13.8c-2.9-3.7-5.1-8-6.4-12.5c-1.3-4.5-1.7-9.3-1.3-14.1c0.5-4.7,1.8-9.4,4-13.6
			c2.2-4.2,5.2-8,8.8-11.1c7.2-6.2,16.7-9.4,26.1-9.1c9.4,0.3,18.5,4.2,25.2,10.7c6.7,6.4,11.1,15.3,11.8,24.7
			c0.4,4.7-0.1,9.4-1.5,13.9c-1.3,4.5-3.6,8.8-6.6,12.5c-5.8,7.5-14.7,12.6-24.1,14L78,88.9l0-1.7c0-6.8-0.1-13.5-0.1-20.3
			c0-6.8,0-13.5,0.1-20.3l0-1.9l1.8,0.3c2.3,0.4,4.3,1.1,6.4,2c2,0.9,4,2.1,5.6,3.8c1.6,1.7,2.8,4,3,6.4c0.2,2.4-0.4,4.7-1.3,6.7
			l-1.9-1.5c1.8-1.3,3.4-3.1,4.6-5c1.2-1.9,1.9-4.1,1.6-6.3c-0.2-2.2-1.5-4.2-3.1-5.8c-1.6-1.7-3.6-3-5.7-4.2l0.1,0
			c-2.8-1.2-5.9-2-8.8-3.4c-1.4-0.7-2.8-1.5-4.2-2.3c-1.3-0.9-2.6-1.8-3.8-2.8l0.2-0.2c2.6,1.8,5.3,3.4,8.2,4.6
			c1.4,0.6,2.9,1,4.4,1.5s3.1,0.8,4.6,1.4l0,0l0.1,0c2.2,1.1,4.4,2.5,6.3,4.2c1.8,1.8,3.5,4,3.9,6.8c0.4,2.7-0.3,5.5-1.6,7.8
			c-1.3,2.3-3,4.2-5.1,5.9l-3.7,2.9l1.8-4.4c0.7-1.8,1.2-3.7,0.9-5.5c-0.2-1.8-1.1-3.4-2.3-4.7c-1.3-1.3-3-2.3-4.8-3.1
			c-1.8-0.8-3.8-1.4-5.6-1.7l1.8-1.5c0.1,6.8,0.1,13.5,0.1,20.3c0,6.8-0.1,13.5-0.1,20.3l-1.7-1.5c4.4-0.6,8.6-2,12.5-4.2
			c3.8-2.2,7.3-5,10.2-8.4c5.7-6.8,8.8-15.8,8.4-24.8c-0.2-4.5-1.2-9-3.1-13.1c-1.8-4.1-4.5-7.9-7.8-11c-3.3-3.2-7.1-5.7-11.3-7.4
			c-4.2-1.7-8.7-2.6-13.2-2.5c-4.5,0-9,0.9-13.1,2.5c-4.2,1.6-8,4-11.3,7C43.9,29.8,39.6,38.1,38.6,47c-0.4,4.4-0.2,8.9,1,13.2
			c1.2,4.3,3.1,8.4,5.7,12c5.2,7.3,13.2,12.6,22.1,14.7L67.4,87.1z"/>
	</g>
</g>
<g>
	<path d="M87.5,116.7c-1.2,2.5-2.6,4.6-4.1,6.2s-2.9,2.4-4.1,2.4c-1,0-1.8-0.3-2.4-1c-0.6-0.7-0.9-1.6-0.9-2.7c0-1.4,0.5-4,1.4-7.7
		c0.3-1,0.4-1.7,0.4-1.9s-0.1-0.6-0.3-0.9l1.8,0c0.8,0,1.2,0.3,1.2,0.9c0,0.4-0.3,1.5-0.8,3.3c-0.2,0.5-0.3,0.9-0.3,1.1l-0.2,0.8
		c-0.4,1.6-0.6,2.9-0.6,3.7c0,1.3,0.4,2,1.4,2c1.5,0,3.4-1.8,5.7-5.5c1.9-3,2.8-5.1,2.8-6.4c0-0.2-0.1-0.4-0.2-0.5
		c0.7-0.2,1.3-0.3,1.9-0.3c0.8,0,1.2,0.2,1.2,0.7c0,0.1,0,0.3-0.1,0.5c0,0.1-0.1,0.5-0.3,1c0,0.1-0.1,0.5-0.3,1.1
		c-0.1,0.4-0.2,0.8-0.3,1l-0.1,0.6c-0.3,1.5-0.4,2.8-0.4,4.1c0,1.9,0.5,2.9,1.4,2.9c2.1,0,4.7-2.9,7.9-8.8l1.1,0.7
		c-3.7,7-7,10.5-10,10.5c-2,0-3.1-1.8-3.1-5.3C87.4,118.5,87.5,117.7,87.5,116.7z"/>
	<path d="M111.6,114c-1.8,3.5-3.7,6.2-5.6,8.2s-3.5,3-4.9,3c-1,0-1.9-0.4-2.5-1.2s-1-1.9-1-3.2c0-0.7,0.1-1.8,0.4-3.1l2.7-13.4
		c-0.3,0.1-0.7,0.1-0.9,0.1c-2.1,0-3.1-0.8-3.1-2.6v-0.3c1.1,0.6,2.3,0.9,3.6,0.9s2.5-0.3,3.5-1l-3.1,16.1c-0.3,1.4-0.4,2.4-0.4,3
		c0,1.5,0.6,2.3,1.7,2.3c1.1,0,2.1-0.6,3.2-1.8s2.9-3.8,5.3-7.7L111.6,114z"/>
	<path d="M127.2,114c-2.2,3.6-4.4,6.5-6.8,8.5s-4.7,3.1-6.7,3.1c-1.7,0-3.1-0.6-4.2-1.8c-1.1-1.2-1.6-2.7-1.6-4.6
		c0-2.5,0.9-4.6,2.8-6.5c1.8-1.8,4-2.8,6.5-2.8c1,0,1.8,0.2,2.5,0.6s1,0.9,1,1.5c0,1-0.8,1.7-2.5,2.2c0.1-0.2,0.1-0.4,0.1-0.6
		c0-1.4-0.8-2.2-2.3-2.2c-1.3,0-2.6,0.7-3.7,2.2c-1.1,1.5-1.7,3.1-1.7,4.9c0,1.4,0.4,2.6,1.1,3.5s1.7,1.4,2.9,1.4
		c3.3,0,7.1-3.4,11.5-10.2L127.2,114z"/>
	<path d="M126.2,119.3c0,2.6,1.1,3.9,3.3,3.9c1.9,0,4-0.9,6.3-2.7s4.4-4.2,6.2-7.2l1.1,0.6c-1.8,3.3-4,5.9-6.8,8.1
		c-2.8,2.1-5.4,3.2-7.9,3.2c-1.6,0-2.9-0.5-3.8-1.6c-0.9-1-1.4-2.4-1.4-4.2c0-2.6,0.8-4.8,2.5-6.6s3.7-2.8,6.1-2.8
		c1.1,0,2.1,0.3,2.8,0.9c0.7,0.6,1,1.3,1,2.3c0,1.6-1,3-2.9,4.2C130.9,118.7,128.7,119.3,126.2,119.3z M126.3,118
		c1.9-0.1,3.5-0.6,4.8-1.6c1.3-1,2-2.1,2-3.4c0-1.1-0.5-1.7-1.5-1.7c-1.2,0-2.3,0.7-3.4,1.9C127.2,114.6,126.6,116.2,126.3,118z"/>
	<path d="M149.6,119.6c0.2,0.4,0.4,0.8,0.4,1.2c0,0.9-0.7,1.8-2.2,2.9c-1.5,1.1-2.8,1.6-4,1.6c-1.1,0-1.9-0.5-2.6-1.4s-1-2.2-1-3.7
		c0-1.7,0.4-4.1,1.3-7.1l0.6-2.2h-2.3c-0.9,0-1.7,0.1-2.3,0.4c0.5-0.9,0.9-1.5,1.3-1.8c0.3-0.2,0.9-0.4,1.7-0.4h2l0.3-0.9
		c0.4-1.4,0.9-2.3,1.5-2.8s1.4-0.8,2.6-0.8c0.1,0,0.4,0,0.6,0c-0.7,0.9-1.4,2.4-2.2,4.5h7.1c1.2,0,2.2-0.2,2.8-0.5
		c-0.2,0.9-0.5,1.5-0.9,1.8s-1.1,0.4-2.1,0.4h-7.5c-0.1,0.3-0.2,0.5-0.2,0.7c-1.1,3.7-1.6,6.4-1.6,8.3c0,2.1,0.7,3.1,2.2,3.1
		c0.8,0,1.6-0.3,2.5-1C148.6,121.2,149.3,120.4,149.6,119.6z"/>
</g>
<g>
	<path d="M170.5,120.9c3.2-6.8,6-10.1,8.5-10.1c1.1,0,1.6,0.8,1.6,2.3c0,0.7-0.2,2.2-0.7,4.5l-0.8,4c1.6-3.3,3.2-5.9,4.9-7.9
		s3.1-3,4.4-3c1.4,0,2,0.8,2,2.4c0,0.6-0.2,1.9-0.6,3.9l-0.4,2.1c-0.3,1.3-0.4,2.2-0.4,2.8c0,1.1,0.4,1.6,1.1,1.6
		c1.7,0,4.3-3.2,7.9-9.5l1.1,0.6c-3.9,7.5-7.2,11.3-10.1,11.3c-1.8,0-2.8-1.2-2.8-3.6c0-0.8,0.2-2.1,0.5-3.9l0.4-1.8
		c0.3-1.3,0.4-2,0.4-2.3c0-0.4-0.2-0.6-0.6-0.6c-1,0-2.7,1.9-5.2,5.7c-2.3,3.5-3.4,5.5-3.4,6c0,0.1,0,0.2,0.1,0.3
		c-0.1,0-0.3,0.1-0.6,0.2c-0.1,0-0.3,0.1-0.6,0.1c-0.8,0-1.2-0.4-1.2-1.2c0-0.2,0.1-1,0.4-2.2c0.1-0.4,0.2-0.9,0.3-1.4l0.6-2.8
		c0.4-2,0.6-3.3,0.6-3.7c0-0.6-0.2-0.9-0.6-0.9c-1,0-2.4,1.7-4.3,5.2c-1.9,3.4-2.8,5.4-2.8,6.1c0,0.2,0.1,0.4,0.2,0.6
		c-0.5,0.2-0.9,0.3-1.4,0.3c-0.9,0-1.4-0.5-1.4-1.5c0-0.1,0.1-1.4,0.4-3.9l0.3-2.8c0.1-1,0.2-1.9,0.2-2.8c0-1.1-0.2-1.8-0.6-2.3
		c1-0.4,1.8-0.6,2.2-0.6c0.8,0,1.2,0.5,1.2,1.4c0,0.3-0.1,1.6-0.3,3.7L170.5,120.9z"/>
	<path d="M207.6,117.4c-1.2,2.5-2.6,4.6-4.1,6.2s-2.9,2.4-4.1,2.4c-1,0-1.8-0.3-2.4-1s-0.9-1.6-0.9-2.7c0-1.4,0.5-4,1.4-7.7
		c0.3-1,0.4-1.7,0.4-1.9s-0.1-0.6-0.3-0.9l1.8,0c0.8,0,1.2,0.3,1.2,0.9c0,0.4-0.3,1.5-0.8,3.3c-0.2,0.5-0.3,0.9-0.3,1.1l-0.2,0.8
		c-0.4,1.6-0.6,2.9-0.6,3.7c0,1.3,0.4,2,1.4,2c1.5,0,3.4-1.8,5.7-5.5c1.9-3,2.8-5.1,2.8-6.4c0-0.2-0.1-0.4-0.2-0.5
		c0.7-0.2,1.4-0.3,1.9-0.3c0.8,0,1.2,0.2,1.2,0.7c0,0.1,0,0.3-0.1,0.5c0,0.1-0.1,0.5-0.3,1c0,0.1-0.1,0.5-0.3,1.1
		c-0.1,0.4-0.2,0.8-0.3,1l-0.1,0.6c-0.3,1.5-0.4,2.8-0.4,4.1c0,1.9,0.5,2.9,1.4,2.9c2.1,0,4.7-2.9,7.9-8.8l1.1,0.7
		c-3.6,7-7,10.5-10,10.5c-2,0-3.1-1.8-3.1-5.3C207.4,119.3,207.5,118.4,207.6,117.4z"/>
	<path d="M224.8,120.9c0.3,0.7,0.4,1.3,0.4,1.9c0,1.4-0.6,2.6-1.7,3.6c-1.1,1-2.5,1.5-4,1.5c-0.9,0-1.7-0.2-2.3-0.7s-0.9-1-0.9-1.7
		c0-0.7,0.4-1.4,1.3-2.1c0.9-0.7,2.3-1.6,4.4-2.5l-1.1-1.7c-1.3-2.1-1.9-3.7-1.9-4.9c0-1.7,1-3.1,2.9-4.1c1.2,0.5,1.8,1.1,1.8,1.8
		c0,1-0.8,2-2.3,2.9l1.5,2.8l1.2,2.2c1.7-1,3-1.9,3.9-2.6c0.9-0.7,1.9-1.8,3.3-3.4l1.1,0.7C230.3,117.1,227.8,119.2,224.8,120.9z
		 M222.5,122.1c-2.6,1.4-3.9,2.5-3.9,3.3c0,0.7,0.5,1.1,1.6,1.1c0.8,0,1.4-0.3,1.9-0.8c0.5-0.5,0.7-1.2,0.7-2.1
		C222.8,123.2,222.7,122.7,222.5,122.1z"/>
	<path d="M244.4,114.7c-2,3.5-4.1,6.3-6.1,8.3c-2.1,2-3.9,3-5.5,3c-1,0-1.8-0.3-2.4-1s-0.9-1.5-0.9-2.6c0-0.4,0.1-1,0.3-1.9l0.3-1.5
		c0.4-2.1,0.6-3.6,0.6-4.5c0-0.5-0.1-0.9-0.4-1.2c1.2-0.3,1.9-0.4,2.2-0.4c0.7,0,1,0.5,1,1.4c0,0.7-0.1,1.7-0.4,2.9l-0.5,2.6
		c-0.3,1.3-0.4,2.1-0.4,2.4c0,1.1,0.5,1.7,1.4,1.7c1.1,0,2.6-0.9,4.4-2.8s3.6-4.2,5.4-7.1L244.4,114.7z M232.5,108l0.2,0
		c0.6,0,1.4-0.3,2.6-0.9c1.1-0.6,2-1.2,2.6-1.8c-0.4,1.2-1.1,2.3-2.1,3.1c-1.5,1.3-2.5,1.9-3.1,1.9c-0.4,0-0.5-0.2-0.5-0.7
		C232.2,109,232.3,108.5,232.5,108z"/>
	<path d="M260,114.7c-2.1,3.6-4.4,6.5-6.9,8.5s-4.6,3.1-6.7,3.1c-1.7,0-3.1-0.6-4.2-1.8c-1.1-1.2-1.6-2.7-1.6-4.6
		c0-2.5,0.9-4.6,2.8-6.5c1.8-1.8,4-2.8,6.5-2.8c1,0,1.8,0.2,2.5,0.6s1,0.9,1,1.5c0,1-0.8,1.7-2.5,2.2c0.1-0.2,0.1-0.4,0.1-0.6
		c0-1.4-0.8-2.2-2.3-2.2c-1.3,0-2.6,0.7-3.7,2.2s-1.7,3.1-1.7,4.9c0,1.4,0.4,2.6,1.1,3.5s1.7,1.4,2.9,1.4c3.3,0,7.1-3.4,11.5-10.2
		L260,114.7z"/>
</g>
</svg>
