<?xml version="1.0" encoding="utf-8"?>
<!-- Generator: Adobe Illustrator 24.0.2, SVG Export Plug-In . SVG Version: 6.00 Build 0)  -->
<svg version="1.1" id="圖層_1" xmlns="http://www.w3.org/2000/svg" xmlns:xlink="http://www.w3.org/1999/xlink" x="0px" y="0px"
	 viewBox="0 0 300 150" style="enable-background:new 0 0 300 150;" xml:space="preserve">
<style type="text/css">
	.st0{fill:#FFFFFF;}
</style>
<g>
	<g>
		<path class="st0" d="M72.02,33.1c0.6,0.01,0.17,0.01,0.3,0.02l0,0.02l0,0.04l0.01,0.08l0.01,0.16l0.03,0.31l0.05,0.63l0.1,1.26
			l0.16,2.52c0.11,1.68,0.22,3.35,0.29,5.03c0.17,3.35,0.28,6.71,0.36,10.06c0.16,6.71,0.26,13.42,0.07,20.12l-0.43,10.06
			c-0.16,3.35-0.3,6.71-0.33,10.06c-0.11,6.71,0.11,13.42,0.37,20.12l0.13,3.17l-1.74-2.79c-0.71-1.14-1.79-2.27-2.92-3.16
			c-1.15-0.9-2.4-1.66-3.73-2.25c-1.35-0.55-2.74-1-4.19-1.22c-0.71-0.16-1.46-0.17-2.18-0.28c-0.73-0.05-1.47-0.04-2.21-0.07l0.1,0
			c-1.74,0.14-3.32,0.19-4.81,0.51c-1.48,0.31-2.85,0.84-3.95,1.68c-1.1,0.84-1.94,1.97-2.56,3.28c-0.66,1.3-0.92,2.83-1.2,4.34
			l0.01-0.21c-0.01,1.49,0.23,2.83,0.98,3.85c0.7,1.06,1.93,1.83,3.31,2.4c1.39,0.57,2.93,0.94,4.52,1.16c0.79,0.14,1.6,0.2,2.4,0.3
			c0.78,0.07,1.52,0.07,2.3,0.02c3.09-0.27,6.21-1.39,8.85-3.21c2.66-1.8,4.8-4.41,5.89-7.56l0.29,0.07
			c-0.6,3.35-2.56,6.49-5.25,8.7c-2.7,2.2-5.94,3.81-9.51,4.35c-0.88,0.12-1.83,0.18-2.72,0.15c-0.86-0.05-1.73-0.04-2.6-0.16
			c-1.73-0.16-3.49-0.49-5.24-1.1c-1.72-0.61-3.52-1.62-4.76-3.33c-1.29-1.68-1.66-3.82-1.68-5.65l0-0.12l0.02-0.09
			c0.31-1.76,0.63-3.56,1.48-5.27c0.79-1.7,2.01-3.32,3.62-4.44c1.6-1.14,3.45-1.77,5.23-2.08c1.79-0.33,3.56-0.32,5.15-0.4l0.09,0
			l0.01,0c0.82,0.05,1.64,0.08,2.46,0.15c0.82,0.13,1.64,0.19,2.45,0.41c1.62,0.34,3.19,0.93,4.69,1.65
			c1.49,0.75,2.88,1.7,4.09,2.84c1.22,1.15,2.26,2.39,3.07,3.97l-1.62,0.38c0.27-6.71,0.48-13.42,0.37-20.12
			c-0.03-3.35-0.17-6.71-0.33-10.06l-0.43-10.06c-0.19-6.71-0.09-13.42,0.07-20.12c0.08-3.35,0.2-6.71,0.36-10.06
			c0.07-1.68,0.18-3.35,0.29-5.03l0.16-2.52l0.1-1.26l0.05-0.63l0.03-0.31L72,33.25l0.01-0.08l0-0.04l0-0.02
			c0.13-0.01-0.3-0.01,0.3-0.02H72.02z"/>
	</g>
	<g>
		<path class="st0" d="M67.36,87.13c-9.15-1.31-17.78-6.38-23.56-13.82c-2.88-3.72-5.11-7.98-6.42-12.53
			c-1.31-4.55-1.74-9.35-1.31-14.08c0.48-4.73,1.81-9.38,4-13.6c2.18-4.23,5.17-8.03,8.77-11.12c7.19-6.22,16.74-9.45,26.08-9.05
			c9.36,0.31,18.46,4.23,25.15,10.67c6.72,6.41,11.06,15.33,11.76,24.69c0.38,4.67-0.11,9.42-1.47,13.94
			c-1.34,4.53-3.62,8.78-6.56,12.49C97.96,82.18,89.14,87.3,79.68,88.7l-1.69,0.25l-0.01-1.73c-0.04-6.77-0.12-13.54-0.11-20.31
			c-0.02-6.77,0.01-13.54,0.06-20.31l0.01-1.86l1.77,0.34c2.26,0.43,4.3,1.09,6.36,2.01c2.01,0.94,3.98,2.13,5.6,3.85
			c1.61,1.69,2.81,4,2.96,6.41c0.21,2.41-0.43,4.7-1.31,6.74l-1.91-1.5c1.81-1.35,3.44-3.1,4.62-5.03c1.17-1.94,1.86-4.13,1.6-6.29
			c-0.23-2.17-1.47-4.18-3.08-5.84c-1.64-1.65-3.62-3.03-5.72-4.2l0.07,0.03c-2.82-1.19-5.94-1.98-8.83-3.38
			c-1.45-0.68-2.83-1.48-4.16-2.35c-1.33-0.87-2.59-1.84-3.83-2.82l0.18-0.24c2.59,1.78,5.29,3.4,8.18,4.57
			c1.44,0.59,2.92,1.05,4.43,1.48c1.51,0.43,3.05,0.84,4.57,1.41l0.02,0.01l0.05,0.02c2.23,1.12,4.38,2.47,6.27,4.22
			c1.85,1.75,3.48,4.05,3.9,6.79c0.45,2.73-0.33,5.5-1.63,7.76c-1.32,2.28-3.04,4.23-5.11,5.87l-3.69,2.92l1.78-4.42
			c0.73-1.81,1.16-3.71,0.95-5.49c-0.17-1.79-1.05-3.39-2.34-4.7c-1.29-1.31-2.99-2.3-4.78-3.09c-1.78-0.78-3.76-1.38-5.62-1.71
			L81,46.6c0.05,6.77,0.08,13.54,0.06,20.31c0.01,6.77-0.06,13.54-0.11,20.31l-1.71-1.48c4.37-0.59,8.62-2.02,12.47-4.18
			c3.85-2.17,7.31-5.03,10.16-8.43c5.69-6.8,8.83-15.77,8.39-24.76c-0.2-4.48-1.23-8.95-3.06-13.08c-1.85-4.12-4.49-7.9-7.76-11.04
			c-3.25-3.16-7.13-5.66-11.32-7.38c-4.2-1.71-8.72-2.56-13.23-2.52c-4.5,0.02-8.98,0.86-13.13,2.49
			c-4.16,1.62-7.97,4.04-11.25,7.02c-6.56,5.95-10.92,14.27-11.87,23.1c-0.42,4.41-0.18,8.91,0.98,13.21
			c1.15,4.29,3.07,8.4,5.7,12.02c5.21,7.28,13.16,12.64,22.1,14.65L67.36,87.13z"/>
	</g>
</g>
<g>
	<path class="st0" d="M87.54,116.66c-1.23,2.54-2.6,4.6-4.11,6.18c-1.51,1.58-2.87,2.38-4.07,2.38c-0.97,0-1.76-0.34-2.36-1.03
		c-0.61-0.68-0.91-1.57-0.91-2.67c0-1.41,0.47-3.99,1.42-7.74c0.26-1.01,0.39-1.65,0.39-1.92s-0.08-0.56-0.25-0.87l1.84-0.01
		c0.79,0,1.19,0.31,1.19,0.92c0,0.38-0.26,1.48-0.77,3.29c-0.16,0.54-0.26,0.92-0.31,1.12l-0.2,0.81c-0.39,1.63-0.59,2.87-0.59,3.72
		c0,1.31,0.45,1.97,1.36,1.97c1.49,0,3.37-1.84,5.66-5.52c1.87-2.99,2.8-5.13,2.8-6.4c0-0.18-0.05-0.36-0.16-0.53
		c0.73-0.21,1.35-0.31,1.86-0.31c0.78,0,1.18,0.24,1.18,0.72c0,0.12-0.04,0.29-0.11,0.51c-0.04,0.13-0.12,0.46-0.25,0.97
		c-0.02,0.1-0.11,0.46-0.27,1.08c-0.12,0.44-0.2,0.78-0.25,1.04l-0.13,0.64c-0.29,1.47-0.44,2.84-0.44,4.12
		c0,1.95,0.47,2.93,1.42,2.93c2.08,0,4.73-2.93,7.93-8.79l1.12,0.67c-3.65,7.02-6.99,10.53-10.02,10.53c-2.04,0-3.06-1.77-3.06-5.3
		C87.43,118.5,87.47,117.66,87.54,116.66z"/>
	<path class="st0" d="M111.6,114c-1.84,3.5-3.69,6.24-5.55,8.23c-1.86,1.99-3.51,2.98-4.94,2.98c-1.04,0-1.88-0.4-2.52-1.21
		s-0.96-1.86-0.96-3.16c0-0.73,0.13-1.76,0.4-3.1l2.66-13.38c-0.35,0.05-0.65,0.08-0.91,0.08c-2.05,0-3.07-0.85-3.07-2.56v-0.31
		c1.07,0.61,2.27,0.91,3.62,0.91s2.52-0.33,3.53-1l-3.1,16.06c-0.28,1.44-0.41,2.43-0.41,2.98c0,1.5,0.55,2.26,1.66,2.26
		c1.07,0,2.14-0.6,3.22-1.81c1.08-1.21,2.86-3.78,5.32-7.71L111.6,114z"/>
	<path class="st0" d="M127.23,113.97c-2.15,3.61-4.44,6.46-6.85,8.54s-4.65,3.12-6.72,3.12c-1.72,0-3.11-0.59-4.18-1.76
		c-1.07-1.18-1.6-2.7-1.6-4.58c0-2.48,0.92-4.63,2.76-6.47c1.84-1.84,4.01-2.76,6.49-2.76c1.01,0,1.83,0.19,2.48,0.58
		c0.65,0.39,0.97,0.88,0.97,1.48c0,0.98-0.83,1.71-2.5,2.2c0.09-0.21,0.13-0.42,0.13-0.61c0-1.44-0.77-2.16-2.3-2.16
		c-1.33,0-2.55,0.74-3.67,2.22c-1.12,1.48-1.68,3.11-1.68,4.87c0,1.43,0.37,2.6,1.11,3.5c0.74,0.9,1.71,1.36,2.9,1.36
		c3.28,0,7.11-3.4,11.51-10.19L127.23,113.97z"/>
	<path class="st0" d="M126.23,119.33c0,2.6,1.1,3.9,3.31,3.9c1.91,0,4.02-0.91,6.33-2.73c2.31-1.82,4.38-4.22,6.24-7.2l1.13,0.63
		c-1.75,3.26-4.01,5.95-6.8,8.09c-2.79,2.14-5.44,3.2-7.94,3.2c-1.6,0-2.87-0.52-3.8-1.55c-0.93-1.03-1.4-2.44-1.4-4.23
		c0-2.58,0.84-4.79,2.53-6.62s3.72-2.75,6.1-2.75c1.15,0,2.07,0.29,2.76,0.87c0.69,0.58,1.03,1.35,1.03,2.32
		c0,1.59-0.96,3-2.88,4.23C130.92,118.71,128.72,119.33,126.23,119.33z M126.33,118.04c1.86-0.1,3.46-0.63,4.79-1.6
		c1.33-0.97,2-2.09,2-3.36c0-1.14-0.51-1.7-1.52-1.7c-1.21,0-2.33,0.65-3.35,1.94C127.22,114.63,126.58,116.2,126.33,118.04z"/>
	<path class="st0" d="M149.65,119.6c0.24,0.44,0.36,0.82,0.36,1.15c0,0.87-0.74,1.84-2.21,2.89c-1.47,1.06-2.82,1.58-4.03,1.58
		c-1.07,0-1.94-0.48-2.61-1.43c-0.67-0.95-1.01-2.18-1.01-3.69c0-1.67,0.44-4.06,1.32-7.14l0.61-2.24h-2.26
		c-0.94,0-1.7,0.13-2.26,0.4c0.52-0.94,0.94-1.53,1.28-1.76c0.34-0.24,0.91-0.36,1.72-0.36h2.02l0.27-0.92
		c0.41-1.38,0.9-2.32,1.47-2.83c0.57-0.51,1.42-0.77,2.56-0.77c0.13,0,0.35,0.01,0.64,0.03c-0.69,0.89-1.42,2.39-2.16,4.5h7.05
		c1.24,0,2.18-0.16,2.83-0.48c-0.22,0.91-0.52,1.51-0.89,1.79c-0.37,0.28-1.06,0.42-2.06,0.42h-7.5c-0.09,0.29-0.16,0.51-0.2,0.65
		c-1.08,3.67-1.62,6.44-1.62,8.31c0,2.07,0.74,3.1,2.23,3.1c0.77,0,1.6-0.32,2.5-0.97C148.62,121.15,149.26,120.42,149.65,119.6z"/>
</g>
<g>
	<path class="st0" d="M170.52,120.94c3.21-6.75,6.04-10.13,8.49-10.13c1.08,0,1.62,0.78,1.62,2.33c0,0.67-0.23,2.17-0.69,4.5
		l-0.8,4.04c1.56-3.27,3.18-5.9,4.87-7.89s3.15-2.98,4.38-2.98c1.35,0,2.03,0.79,2.03,2.37c0,0.57-0.2,1.87-0.6,3.91l-0.41,2.08
		c-0.25,1.25-0.37,2.18-0.37,2.79c0,1.07,0.38,1.6,1.14,1.6c1.71,0,4.33-3.17,7.88-9.51l1.12,0.63
		c-3.86,7.52-7.24,11.29-10.12,11.29c-1.84,0-2.76-1.2-2.76-3.61c0-0.8,0.18-2.09,0.53-3.86l0.37-1.84
		c0.25-1.25,0.37-2.02,0.37-2.32c0-0.38-0.2-0.57-0.59-0.57c-0.96,0-2.68,1.91-5.17,5.73c-2.25,3.48-3.38,5.47-3.38,5.97
		c0,0.05,0.02,0.15,0.05,0.28c-0.13,0.03-0.34,0.08-0.65,0.17c-0.13,0.04-0.33,0.07-0.6,0.07c-0.83,0-1.24-0.4-1.24-1.19
		c0-0.24,0.13-0.96,0.4-2.17c0.1-0.44,0.2-0.9,0.29-1.4l0.56-2.83c0.41-2.04,0.61-3.26,0.61-3.67c0-0.6-0.22-0.89-0.65-0.89
		c-0.96,0-2.38,1.72-4.25,5.16c-1.86,3.41-2.79,5.45-2.79,6.11c0,0.19,0.07,0.37,0.21,0.55c-0.49,0.21-0.94,0.32-1.35,0.32
		c-0.93,0-1.39-0.5-1.39-1.5c0-0.12,0.13-1.42,0.4-3.89l0.31-2.84c0.11-1,0.16-1.92,0.16-2.76c0-1.07-0.22-1.85-0.65-2.35
		c1.03-0.37,1.76-0.56,2.19-0.56c0.78,0,1.17,0.46,1.17,1.39c0,0.33-0.11,1.55-0.32,3.67L170.52,120.94z"/>
	<path class="st0" d="M207.56,117.41c-1.23,2.54-2.6,4.6-4.11,6.18c-1.51,1.58-2.87,2.38-4.07,2.38c-0.97,0-1.76-0.34-2.36-1.03
		s-0.91-1.57-0.91-2.67c0-1.41,0.47-3.99,1.42-7.74c0.26-1.01,0.39-1.65,0.39-1.92s-0.08-0.56-0.25-0.87l1.84-0.01
		c0.79,0,1.19,0.31,1.19,0.92c0,0.38-0.26,1.48-0.77,3.29c-0.16,0.54-0.26,0.92-0.31,1.12l-0.2,0.81c-0.39,1.63-0.59,2.87-0.59,3.72
		c0,1.31,0.45,1.97,1.36,1.97c1.49,0,3.37-1.84,5.66-5.52c1.87-2.99,2.8-5.13,2.8-6.4c0-0.18-0.05-0.36-0.16-0.53
		c0.73-0.21,1.35-0.31,1.86-0.31c0.78,0,1.17,0.24,1.17,0.72c0,0.12-0.04,0.29-0.11,0.51c-0.04,0.13-0.12,0.46-0.25,0.97
		c-0.02,0.1-0.11,0.46-0.27,1.08c-0.12,0.44-0.2,0.78-0.25,1.04l-0.13,0.64c-0.29,1.47-0.44,2.84-0.44,4.12
		c0,1.95,0.47,2.93,1.42,2.93c2.08,0,4.73-2.93,7.93-8.79l1.12,0.67c-3.65,7.02-6.99,10.53-10.02,10.53c-2.04,0-3.06-1.77-3.06-5.3
		C207.45,119.25,207.49,118.42,207.56,117.41z"/>
	<path class="st0" d="M224.76,120.94c0.3,0.68,0.45,1.32,0.45,1.94c0,1.36-0.57,2.55-1.71,3.56c-1.14,1.01-2.47,1.52-4.01,1.52
		c-0.9,0-1.67-0.23-2.3-0.69c-0.63-0.46-0.95-1.02-0.95-1.67c0-0.69,0.43-1.4,1.3-2.11c0.87-0.71,2.32-1.56,4.36-2.54l-1.07-1.72
		c-1.3-2.09-1.95-3.73-1.95-4.9c0-1.69,0.98-3.05,2.95-4.09c1.21,0.46,1.82,1.05,1.82,1.75c0,1-0.77,1.96-2.31,2.87l1.52,2.8
		l1.19,2.16c1.7-1.01,2.98-1.88,3.85-2.61c0.86-0.73,1.95-1.84,3.27-3.36l1.07,0.65C230.33,117.06,227.84,119.21,224.76,120.94z
		 M222.49,122.14c-2.62,1.41-3.93,2.5-3.93,3.27c0,0.73,0.53,1.09,1.59,1.09c0.78,0,1.42-0.27,1.91-0.79
		c0.49-0.53,0.73-1.21,0.73-2.05C222.79,123.16,222.69,122.65,222.49,122.14z"/>
	<path class="st0" d="M244.39,114.71c-2.01,3.53-4.05,6.29-6.1,8.28c-2.06,1.99-3.9,2.99-5.54,2.99c-1,0-1.8-0.33-2.41-0.98
		c-0.61-0.65-0.92-1.5-0.92-2.56c0-0.4,0.09-1.04,0.27-1.91l0.29-1.47c0.44-2.12,0.65-3.61,0.65-4.46c0-0.51-0.15-0.92-0.45-1.24
		c1.16-0.27,1.88-0.4,2.18-0.4c0.66,0,0.99,0.46,0.99,1.39c0,0.68-0.13,1.67-0.39,2.95l-0.52,2.6c-0.26,1.25-0.39,2.07-0.39,2.44
		c0,1.1,0.47,1.65,1.4,1.65c1.11,0,2.59-0.94,4.45-2.81s3.65-4.24,5.38-7.12L244.39,114.71z M232.5,107.99l0.19,0.01
		c0.6-0.03,1.45-0.33,2.57-0.9c1.12-0.57,1.99-1.16,2.62-1.76c-0.39,1.23-1.09,2.26-2.08,3.08c-1.51,1.26-2.54,1.9-3.07,1.9
		c-0.36,0-0.53-0.22-0.53-0.65C232.2,109.04,232.3,108.48,232.5,107.99z"/>
	<path class="st0" d="M260,114.73c-2.15,3.61-4.44,6.46-6.85,8.54c-2.41,2.08-4.65,3.12-6.72,3.12c-1.72,0-3.11-0.59-4.18-1.76
		c-1.07-1.18-1.6-2.7-1.6-4.58c0-2.48,0.92-4.63,2.76-6.47c1.84-1.84,4.01-2.76,6.49-2.76c1.01,0,1.83,0.19,2.48,0.58
		c0.65,0.39,0.97,0.88,0.97,1.48c0,0.98-0.83,1.71-2.5,2.2c0.09-0.21,0.13-0.42,0.13-0.61c0-1.44-0.77-2.16-2.3-2.16
		c-1.33,0-2.55,0.74-3.67,2.22c-1.12,1.48-1.68,3.11-1.68,4.87c0,1.43,0.37,2.6,1.12,3.5s1.71,1.36,2.9,1.36
		c3.28,0,7.11-3.4,11.51-10.19L260,114.73z"/>
</g>
<g>
</g>
<g>
</g>
<g>
</g>
<g>
</g>
<g>
</g>
<g>
</g>
<g>
</g>
<g>
</g>
<g>
</g>
<g>
</g>
<g>
</g>
<g>
</g>
<g>
</g>
<g>
</g>
<g>
</g>
</svg>
